# xmcd
#
# Track frame offsets: 
#        150
#        14025
#        26263
#        39975
#        54155
#        67499
#        81749
#        95947
#        109707
#        121487
#        135567
#        147966
#        159564
#        174118
#        187835
#        200070
#        214068
#        227118
#        240945
#        254257
#
# Disc length: 3558 seconds
#
# Revision: 1
# Processed by: cddbd v1.5.2PL0 Copyright (c) Steve Scherf et al.
# Submitted via: ExactAudioCopy v0.99pb3
#
DISCID=1c0de414
DTITLE=Povel Ramel - En schlager i Sverige (1942-1948)
DYEAR=2007
DGENRE=Pop
TTITLE0=Vårt eget Blue Hawaii
TTITLE1=Ringsaka - Rangsaka
TTITLE2=My Garden of Memories and Dreams
TTITLE3=Brevet du skickade
TTITLE4=Ridi-up-ray (Det rytmiska barnet)
TTITLE5=Inspirerad utan dig
TTITLE6=Johanssons boogie woogie vals
TTITLE7=En hemmagjord spanjor
TTITLE8=Tack, tack, tack (Nu känns det bättre)
TTITLE9=Aclutti Busch Boosch Bumpa Albertina
TTITLE10=Köp inte en zebra
TTITLE11=Jazzen anfaller
TTITLE12=En schlager i Sverige
TTITLE13=Proffe
TTITLE14=Fåglarna har fel
TTITLE15=Mera bruk i baljan boys
TTITLE16=Sjörövarhambo
TTITLE17=Gullet (Ska du komma till husse)
TTITLE18=Tjo vad det var livat i holken
TTITLE19=Det regnar på vår kärlek
EXTD=
EXTT0=
EXTT1=
EXTT2=
EXTT3=
EXTT4=
EXTT5=
EXTT6=
EXTT7=
EXTT8=
EXTT9=
EXTT10=
EXTT11=
EXTT12=
EXTT13=
EXTT14=
EXTT15=
EXTT16=
EXTT17=
EXTT18=
EXTT19=
PLAYORDER=
